<svg xmlns="http://www.w3.org/2000/svg" viewBox="10 0 200 240" width="200" height="240">
  <defs>
    <linearGradient id="sg1" x1="0%" y1="0%" x2="0%" y2="100%">
      <stop offset="0%" style="stop-color:#1B3A5C"/>
      <stop offset="100%" style="stop-color:#0F2440"/>
    </linearGradient>
    <linearGradient id="stg1" x1="0%" y1="0%" x2="100%" y2="100%">
      <stop offset="0%" style="stop-color:#C9A84C"/>
      <stop offset="100%" style="stop-color:#A8872E"/>
    </linearGradient>
  </defs>
  <path d="M110,8 L200,35 L200,120 C200,170 160,210 110,230 C60,210 20,170 20,120 L20,35 Z" fill="url(#sg1)"/>
  <path d="M110,18 L192,42 L192,118 C192,164 155,200 110,218 C65,200 28,164 28,118 L28,42 Z" fill="none" stroke="#3A7BD5" stroke-width="2.4" opacity="0.4"/>
  <line x1="45" y1="80" x2="80" y2="80" stroke="#3A7BD5" stroke-width="2.4" opacity="0.3"/>
  <line x1="140" y1="80" x2="175" y2="80" stroke="#3A7BD5" stroke-width="2.4" opacity="0.3"/>
  <line x1="45" y1="155" x2="75" y2="155" stroke="#3A7BD5" stroke-width="2.4" opacity="0.25"/>
  <line x1="145" y1="155" x2="175" y2="155" stroke="#3A7BD5" stroke-width="2.4" opacity="0.25"/>
  <line x1="70" y1="55" x2="70" y2="80" stroke="#3A7BD5" stroke-width="2.4" opacity="0.25"/>
  <line x1="150" y1="55" x2="150" y2="80" stroke="#3A7BD5" stroke-width="2.4" opacity="0.25"/>
  <line x1="85" y1="155" x2="85" y2="180" stroke="#3A7BD5" stroke-width="2.4" opacity="0.2"/>
  <line x1="135" y1="155" x2="135" y2="180" stroke="#3A7BD5" stroke-width="2.4" opacity="0.2"/>
  <circle cx="45" cy="80" r="4.5" fill="#3A7BD5" opacity="0.4"/>
  <circle cx="175" cy="80" r="4.5" fill="#3A7BD5" opacity="0.4"/>
  <circle cx="70" cy="55" r="4.5" fill="#3A7BD5" opacity="0.35"/>
  <circle cx="150" cy="55" r="4.5" fill="#3A7BD5" opacity="0.35"/>
  <circle cx="45" cy="155" r="4.5" fill="#3A7BD5" opacity="0.3"/>
  <circle cx="175" cy="155" r="4.5" fill="#3A7BD5" opacity="0.3"/>
  <circle cx="85" cy="180" r="4.5" fill="#3A7BD5" opacity="0.25"/>
  <circle cx="135" cy="180" r="4.5" fill="#3A7BD5" opacity="0.25"/>
  <polygon points="110,52 120,88 158,88 127,110 138,146 110,125 82,146 93,110 62,88 100,88" fill="url(#stg1)"/>
  <polygon points="110,62 117,86 148,86 123,103 132,136 110,120 88,136 97,103 72,86 103,86" fill="none" stroke="#E8D48B" stroke-width="1" opacity="0.5"/>
</svg>
